<svg xmlns="http://www.w3.org/2000/svg" width="900" height="560" viewBox="0 0 900 560">
  <defs>
    <linearGradient id="bg" x1="0" y1="0" x2="1" y2="1">
      <stop offset="0%" stop-color="#e9f3fc"/>
      <stop offset="100%" stop-color="#c6ddf3"/>
    </linearGradient>
    <linearGradient id="line" x1="0" y1="0" x2="1" y2="1">
      <stop offset="0%" stop-color="#0f61af"/>
      <stop offset="100%" stop-color="#4aa3ff"/>
    </linearGradient>
  </defs>
  <rect width="900" height="560" rx="32" fill="url(#bg)"/>
  <circle cx="138" cy="114" r="68" fill="rgba(255,255,255,0.55)"/>
  <circle cx="760" cy="118" r="50" fill="rgba(255,255,255,0.35)"/>
  <circle cx="720" cy="420" r="84" fill="rgba(255,255,255,0.22)"/>
  <path d="M72 392c90-126 188-164 292-112 48 24 95 67 144 72 57 6 111-26 170-64 52-34 112-53 154-53" fill="none" stroke="url(#line)" stroke-width="18" stroke-linecap="round" opacity="0.82"/>
  <path d="M84 446c65-58 137-85 210-79 84 6 118 60 208 66 68 5 130-20 226-76" fill="none" stroke="#8fc3f7" stroke-width="10" stroke-linecap="round" opacity="0.9"/>
  <rect x="126" y="140" width="180" height="82" rx="18" fill="#ffffff" opacity="0.82"/>
  <rect x="334" y="108" width="126" height="62" rx="14" fill="#ffffff" opacity="0.72"/>
  <rect x="520" y="160" width="146" height="70" rx="14" fill="#ffffff" opacity="0.72"/>
  <rect x="504" y="312" width="156" height="70" rx="14" fill="#ffffff" opacity="0.72"/>
  <text x="146" y="190" font-family="Arial, sans-serif" font-size="22" font-weight="700" fill="#0d5ca8">PEOPLE</text>
  <text x="124" y="492" font-family="Arial, sans-serif" font-size="18" fill="#32506b">Editable bilingual static page</text>
</svg>
